<svg xmlns="http://www.w3.org/2000/svg" width="100" height="100" viewBox="0 0 100 100" version="1.1">
  <defs>
    <linearGradient id="grad1" x1="0%" y1="0%" x2="0%" y2="100%">
      <stop offset="0%" style="stop-color:#FFFF00;stop-opacity:1" />
      <stop offset="50%" style="stop-color:#FFA500;stop-opacity:1" />
      <stop offset="100%" style="stop-color:#FF0000;stop-opacity:1" />
    </linearGradient>
  </defs>
  <path d="" stroke="none" fill="url(#grad1)" fill-rule="evenodd" />
  <path d="M 48 4.500 C 48 8.333, 48.296 9, 50 9 C 51.704 9, 52 8.333, 52 4.500 C 52 0.667, 51.704 0, 50 0 C 48.296 0, 48 0.667, 48 4.500 M 27.021 3.987 C 25.765 4.764, 26.284 7.159, 30.474 19.921 C 35.299 34.616, 36.773 37.183, 38.909 34.610 C 39.674 33.688, 38.698 29.511, 35.359 19.419 C 30.414 4.470, 29.369 2.535, 27.021 3.987 M 70.210 4.309 C 69.695 4.964, 67.188 11.785, 64.639 19.467 C 60.936 30.625, 60.255 33.684, 61.252 34.680 C 61.939 35.366, 62.995 35.606, 63.600 35.214 C 64.657 34.528, 74 7.704, 74 5.356 C 74 3.675, 71.296 2.929, 70.210 4.309 M 8.593 6.485 C 8.208 8.018, 7.018 9.208, 5.485 9.593 C 2.308 10.391, 2.308 11.609, 5.485 12.407 C 7.018 12.792, 8.208 13.982, 8.593 15.515 C 8.936 16.882, 9.569 18, 10 18 C 10.431 18, 11.064 16.882, 11.407 15.515 C 11.792 13.982, 12.982 12.792, 14.515 12.407 C 17.692 11.609, 17.692 10.391, 14.515 9.593 C 12.982 9.208, 11.792 8.018, 11.407 6.485 C 11.064 5.118, 10.431 4, 10 4 C 9.569 4, 8.936 5.118, 8.593 6.485 M 88.593 6.485 C 88.208 8.018, 87.018 9.208, 85.485 9.593 C 84.118 9.936, 83 10.569, 83 11 C 83 11.431, 84.118 12.064, 85.485 12.407 C 87.018 12.792, 88.208 13.982, 88.593 15.515 C 88.936 16.882, 89.569 18, 90 18 C 90.431 18, 91.064 16.882, 91.407 15.515 C 91.792 13.982, 92.982 12.792, 94.515 12.407 C 95.882 12.064, 97 11.431, 97 11 C 97 10.569, 95.882 9.936, 94.515 9.593 C 92.982 9.208, 91.792 8.018, 91.407 6.485 C 90.609 3.308, 89.391 3.308, 88.593 6.485 M 48.482 15.057 C 48.123 16.189, 46.715 17.538, 45.354 18.055 C 42.814 19.021, 42.966 21, 45.580 21 C 46.385 21, 47.555 22.125, 48.182 23.500 C 48.808 24.875, 49.627 26, 50 26 C 50.373 26, 51.192 24.875, 51.818 23.500 C 52.445 22.125, 53.615 21, 54.420 21 C 57.034 21, 57.186 19.021, 54.646 18.055 C 53.285 17.538, 51.877 16.189, 51.518 15.057 C 51.159 13.926, 50.476 13, 50 13 C 49.524 13, 48.841 13.926, 48.482 15.057 M 13.596 18.475 C 13.113 20.398, 14.021 22.404, 17.669 27.475 C 22.422 34.083, 24.294 35.282, 25.391 32.423 C 25.957 30.948, 16.408 16.082, 14.858 16.024 C 14.506 16.011, 13.937 17.114, 13.596 18.475 M 79.162 23.572 C 74.102 30.705, 73.190 34, 76.276 34 C 77.012 34, 79.742 31.103, 82.342 27.562 C 86.107 22.433, 86.938 20.602, 86.426 18.562 C 86.073 17.153, 85.494 16.011, 85.142 16.024 C 84.789 16.037, 82.098 19.434, 79.162 23.572 M 48 34.500 C 48 38.333, 48.296 39, 50 39 C 51.704 39, 52 38.333, 52 34.500 C 52 30.667, 51.704 30, 50 30 C 48.296 30, 48 30.667, 48 34.500 M 18 58.500 L 18 80 22.428 80 C 27.974 80, 41.597 81.784, 45.250 82.989 L 48 83.896 48 63.520 L 48 43.144 42.487 41.081 C 38.206 39.479, 24.149 37.067, 18.750 37.008 C 18.337 37.004, 18 46.675, 18 58.500 M 69.820 38.114 C 66.146 38.588, 60.634 39.913, 57.570 41.060 L 52 43.144 52 63.520 L 52 83.896 54.750 82.989 C 58.403 81.784, 72.026 80, 77.572 80 L 82 80 82 58.500 L 82 37 79.250 37.126 C 77.737 37.196, 73.494 37.641, 69.820 38.114 M 8.667 44.667 C 7.396 45.938, 7.901 91.501, 9.200 92.800 C 10.026 93.626, 15.043 94, 25.292 94 C 38.670 94, 40.443 94.203, 42.727 96 C 44.456 97.360, 46.784 98, 50 98 C 53.216 98, 55.544 97.360, 57.273 96 C 59.557 94.203, 61.330 94, 74.708 94 C 84.957 94, 89.974 93.626, 90.800 92.800 C 91.663 91.937, 92 85.244, 92 69 C 92 45.609, 91.731 44, 87.822 44 C 86.188 44, 86.021 45.567, 85.772 63.232 L 85.500 82.463 72.500 83.669 C 65.350 84.333, 57.362 85.535, 54.750 86.340 C 50.579 87.626, 49.421 87.626, 45.250 86.340 C 42.637 85.535, 34.650 84.333, 27.500 83.669 L 14.500 82.463 14.228 63.232 L 13.957 44 11.645 44 C 10.374 44, 9.033 44.300, 8.667 44.667" stroke="none" fill="url(#grad1)" fill-rule="evenodd" />
</svg>
